<svg xmlns="http://www.w3.org/2000/svg" width="154" height="93.74" viewBox="0 0 154 93.74"><defs><style>.a{fill:#fff;}</style></defs><path class="a" d="M40,8.65l-2.92,2.19,1.24,1.65,2.37-1.78h2.75l.88-6.47L38.17,3.13l-.58,3.33,2,.36.22-1.3,2.18.4-.37,2.73Zm73.29,2.06,2.37,1.78,1.24-1.65L114,8.65h-1.64L112,5.92l2.18-.4.22,1.3,2-.36-.58-3.33-6.16,1.11.88,6.47ZM18.82,24.62,17.59,23l-1.65,1.24-1.16-1.53L18,20.26l2.81,3.68v1.59L17,28.38v5.83l1.69,2.2,3.65-2.73v6.76H18.68L15.43,45l5.86,11.82H31.9V54.78l-2.49-5.05H26.49l-1.15-2.31H31.9V36.82l2.17-1.63,8.37,4.28v5.69l-2,2.82,1.9,3.81h2.91l1.49,3h-7l-3.62-7.3L37.86,45V40.44H34V42.5h1.8v1.82l-2.11,3,4.73,9.54H49V54.78l-2.5-5.05H43.62l-.78-1.56,1.66-2.35V38.21l-8.59-4.39,3.5-2.62v2.56H51.68l2.94-.86V45.78L77,54.37l22.38-8.59V34.92l3.05.89,12.16-2.66V31.2l3.5,2.62-8.59,4.39v7.61l1.66,2.35-.78,1.56h-2.93L105,54.78v2.07h10.6l4.74-9.54-2.12-3V42.5h1.86V40.44h-3.91V45l1.78,2.52-3.62,7.3h-7l1.49-3h2.92L113.55,48l-2-2.82V39.47l8.36-4.28,2.18,1.63v10.6h6.56l-1.15,2.31h-2.92l-2.5,5.05v2.07h10.61L138.57,45l-3.24-4.59h-3.68V33.68l3.65,2.73,1.68-2.2V28.38l-3.78-2.85V23.94l2.8-3.68,3.21,2.42-1.16,1.53L136.41,23l-1.23,1.65,3.28,2.46,2.85-3.74v-1.7l-5.7-4.28-4.47,5.86v3.31l3.78,2.85v4.13l-7.1-5.32V24l-4.24-3.19,1.2-1.6-6-4.49,1.86-1,5.3,4-1.19,1.59,3.83,2.88,1.24-1.66L126,17.64l1.2-1.6-4.56-3.41h0V10.25l5.69,4.27-1.19,1.59,3.09,2.32,1.24-1.65-3.09-2.31,1.2-1.59-6.94-5.21V5.28l8.1,6.07-1.19,1.59,2.32,1.74L133.12,13l-2.31-1.73L132,9.71l-9.35-7V0h-2.06V2.26l-3.25.59.37,2,2.88-.52v7l-5.55,3-2.56-1.92-1.23,1.65,1.8,1.35-3.33,1.82-6.24-3.09-1.56-4.56H99.38V5.74H54.62V9.66H52.08l-1.56,4.56-6.24,3.09L41,15.49l1.8-1.35-1.23-1.65L39,14.41l-5.55-3v-7l2.88.52.37-2-3.25-.59V0h-2.1V2.7L22,9.71l1.19,1.59L20.88,13l1.24,1.65,2.32-1.74-1.19-1.59,8.1-6.07V7.67l-6.94,5.21,1.2,1.59-3.09,2.31,1.24,1.65,3.09-2.32-1.19-1.59,5.69-4.27v2.36h0L26.82,16l1.2,1.6-3.83,2.9,1.23,1.66,3.84-2.88-1.19-1.59,5.3-4,1.85,1-6,4.49,1.2,1.6L26.19,24v4.22l-7.1,5.32V29.41l3.78-2.85V23.25L18.4,17.39l-5.7,4.28v1.67l2.85,3.74Zm80.56-12.9h1.07l1.36,4,5.73,2.84v4.81l-5.88-4.42H99.38Zm0,9.26H101l6.46,4.86L103,28l-1.07-3.1h-2.5ZM46.46,18.53l5.73-2.84,1.36-4h1.07v7.2H52.34l-5.88,4.42ZM54.62,21v1.84h-2.5L51,26.2l-4.1-.59L53,21Zm-8.16,4.53Zm-22,6.62,3.84-2.88V25l4.04-3-1.2-1.6,6.08-4.55,7.18,3.91v7.61l8,1.16,1.24-3.61h3.09V7.8H97.32V26.91h3.09l1.33,3.89,7.86-3.7V19.72l7.18-3.91,6.08,4.55-1.2,1.6L125.75,25v4.22l3.85,2.88v8.31h-2V42.5h6.7l1.92,2.72-4.75,9.57h-7.05l1.48-3h2.93L132,45.36h-7.82V35.79l-9-6.71,2-2.6-1.64-1.25-3,4v2.3l-10,2.2-3.12-.92V31.05h-2.1V44.37L77,52.17l-20.32-7.8V29H54.62v1.73l-3.23.94H41.47v-2.5l-3-4-1.64,1.25,2,2.6-9,6.71V45.3H22l3.19,6.43h2.93l1.48,3h-7l-4.75-9.57,1.92-2.72h6.71v-2h-2Zm-6.14,43a3.51,3.51,0,0,0,.35-1.61V69.62A4,4,0,0,0,18.31,68a3.0613,3.0613,0,0,0-.87-1.13,3.72,3.72,0,0,0-1.34-.65A6.161,6.161,0,0,0,14.39,66H10.7V77.15h3.51a6.8094,6.8094,0,0,0,1.72-.21,4.2,4.2,0,0,0,1.4-.65,3.13,3.13,0,0,0,.94-1.13Zm-1.68-1.62a1.6694,1.6694,0,0,1-.2.83,1.6493,1.6493,0,0,1-.52.56,2.0808,2.0808,0,0,1-.76.32,3.85,3.85,0,0,1-.91.1H12.7V67.82h1.68a4.0039,4.0039,0,0,1,.88.09,1.9984,1.9984,0,0,1,.7.32,1.51,1.51,0,0,1,.46.57,1.86,1.86,0,0,1,.17.81ZM95.3,43V9.82H58.7V43L77,50Zm-5.54-5.53-2.37-.3.31,2.37H85.42l.32-2.35-2.39.28V35.18l2.39.32-.32-2.37H87.7l-.31,2.34,2.37-.29Zm0-9.24-2.37-.3.31,2.37H85.42l.32-2.35-2.39.28V25.94l2.39.32-.32-2.37H87.7l-.31,2.34,2.37-.29Zm-5.48-10.9-.46,1.81H86l-.69-1.81,1.23-2,1.23,2-.7,1.81h2.2l-.45-1.8,1.84-1.25-.39,3.06V21H82.83V19.1l-.4-3.05Zm-13,20.22-.81.44a6.3249,6.3249,0,0,1-.76.34,3.46,3.46,0,0,1-.78.21,5.0069,5.0069,0,0,1-.9.07,4.9205,4.9205,0,0,1-1.36-.17,3.2,3.2,0,0,1-1.1-.52,2.45,2.45,0,0,1-.73-.89,2.7706,2.7706,0,0,1-.27-1.27V32.43a2.57,2.57,0,0,1,1-2.12,3.32,3.32,0,0,1,1.1-.54A4.4407,4.4407,0,0,1,68,29.58a4.9,4.9,0,0,1,1.61.26,3.7093,3.7093,0,0,1,1.37.84l-.72,1.16a4.3117,4.3117,0,0,0-1.07-.61A3.35,3.35,0,0,0,68,31a2.61,2.61,0,0,0-.69.09,1.78,1.78,0,0,0-.59.27,1.36,1.36,0,0,0-.41.45,1.29,1.29,0,0,0-.15.62v3.33a1.28,1.28,0,0,0,.55,1.11,1.6711,1.6711,0,0,0,.59.25,3.2417,3.2417,0,0,0,.72.08,5.0733,5.0733,0,0,0,.84-.07,2.82,2.82,0,0,0,.8-.31v-1.9H68.38V33.63h2.88Zm.22-17a2,2,0,0,1-.78,1.65,3,3,0,0,1-.84.42,3.7528,3.7528,0,0,1-1,.14H66.69v3.2h-1.6V17.13h3.72a3.6388,3.6388,0,0,1,1.07.15,2.54,2.54,0,0,1,.85.44,2.1407,2.1407,0,0,1,.55.74,2.3207,2.3207,0,0,1,.2,1Zm4.87-3.63h1.29V39.66H76.35Zm-72,55.76H6.52V75a3.1507,3.1507,0,0,1-1,.39,5.5038,5.5038,0,0,1-1.06.08,4.4208,4.4208,0,0,1-.92-.09,2.3286,2.3286,0,0,1-.75-.32,1.618,1.618,0,0,1-.7-1.4V69.47a1.6008,1.6008,0,0,1,.2-.79,1.8507,1.8507,0,0,1,.51-.57,2.3288,2.3288,0,0,1,.75-.34,3.22,3.22,0,0,1,.88-.12,4.0012,4.0012,0,0,1,1.51.3,5,5,0,0,1,1.36.77l.92-1.48a5.0008,5.0008,0,0,0-1.74-1.06,6.16,6.16,0,0,0-2-.33,5.7094,5.7094,0,0,0-1.67.24,4.4705,4.4705,0,0,0-1.4.69A3.2594,3.2594,0,0,0,.4,67.91a3.38,3.38,0,0,0-.35,1.56V73.7a3.5106,3.5106,0,0,0,.34,1.61,3,3,0,0,0,.92,1.12,4,4,0,0,0,1.39.66,6.4812,6.4812,0,0,0,1.74.23,6.5867,6.5867,0,0,0,1.14-.09,5.5629,5.5629,0,0,0,1-.27,8.1761,8.1761,0,0,0,1-.44l1-.56V71H4.39ZM68.81,18.55H66.69v2.74h2.12a1.4294,1.4294,0,0,0,.74-.19.62.62,0,0,0,.33-.6v-1a.81.81,0,0,0-.31-.69A1.21,1.21,0,0,0,68.81,18.55ZM25.66,65.93H23.19L19.5,77.15h2.16l.79-2.63h3.88l.77,2.63h2.13ZM23,72.88l1.44-4.83,1.42,4.83Zm45.85,4.44a6.0013,6.0013,0,0,0,1.72-.24,4,4,0,0,0,1.4-.71,3.3689,3.3689,0,0,0,.95-1.16,3.7605,3.7605,0,0,0,.34-1.63V66h-2v7.57a1.8714,1.8714,0,0,1-.19.85,1.8006,1.8006,0,0,1-.52.61,2.32,2.32,0,0,1-.76.36,3.46,3.46,0,0,1-.92.12,3.61,3.61,0,0,1-.94-.12,2.2187,2.2187,0,0,1-.76-.35,1.7893,1.7893,0,0,1-.51-.61,1.91,1.91,0,0,1-.19-.86V66h-2v7.57a3.619,3.619,0,0,0,.35,1.63,3.2387,3.2387,0,0,0,.94,1.16,4.0707,4.0707,0,0,0,1.41.71,6.1024,6.1024,0,0,0,1.64.25ZM49.5,75.49A3,3,0,0,0,49.83,74a3.2094,3.2094,0,0,0-.25-1.34,2.56,2.56,0,0,0-.71-1,4.1792,4.1792,0,0,0-1.14-.67,10.8406,10.8406,0,0,0-1.52-.5c-.27-.06-.55-.14-.84-.22a3.54,3.54,0,0,1-.77-.31,2.0584,2.0584,0,0,1-.56-.44.91.91,0,0,1-.22-.63,1.1407,1.1407,0,0,1,.17-.63,1.27,1.27,0,0,1,.45-.41,2.1026,2.1026,0,0,1,.64-.22,4.4156,4.4156,0,0,1,.74-.07,3.0017,3.0017,0,0,1,.69.1,4.4034,4.4034,0,0,1,.72.26,4.66,4.66,0,0,1,.63.33,3.6025,3.6025,0,0,1,.5.36l1.13-1.51a7.28,7.28,0,0,0-1.59-1,5.21,5.21,0,0,0-2.08-.39,6.5616,6.5616,0,0,0-1.57.18,4,4,0,0,0-1.28.56,2.68,2.68,0,0,0-.86,1A2.89,2.89,0,0,0,41.79,69,3.12,3.12,0,0,0,42,70.22a2.4591,2.4591,0,0,0,.65.91,3.9994,3.9994,0,0,0,1,.67,12.5693,12.5693,0,0,0,1.38.52l.88.24a5.8205,5.8205,0,0,1,.89.31,2.279,2.279,0,0,1,.68.47,1,1,0,0,1,.27.7,1.19,1.19,0,0,1-.2.69,1.46,1.46,0,0,1-.51.44,2.4093,2.4093,0,0,1-.7.24,4.1531,4.1531,0,0,1-.79.07,2.62,2.62,0,0,1-.8-.13A4.4437,4.4437,0,0,1,44,75a6.2054,6.2054,0,0,1-.73-.49,2.5116,2.5116,0,0,1-.53-.56l-1.33,1.26a4,4,0,0,0,.81.88,5.6692,5.6692,0,0,0,1,.64,5.94,5.94,0,0,0,1.21.41,6.1434,6.1434,0,0,0,1.29.13,6.541,6.541,0,0,0,1.56-.18,4.0008,4.0008,0,0,0,1.31-.59A3,3,0,0,0,49.5,75.49Zm34.84,1.66V66h-1.8v9l-4.69-9H75.2V77.15H77V68.36l4.52,8.79ZM89,66H87V77.15h2Zm6.64,8.75L92.85,66h-2.1L94.4,77.15h2.47L100.61,66h-2.1Zm13-6.94V66h-6.26V77.15H109v-1.8h-4.57V72.27H108V70.55h-3.55V67.82Zm7.87,4.6a3.08,3.08,0,0,0,1.54-.92,2.44,2.44,0,0,0,.56-1.67V69a2.64,2.64,0,0,0-.93-2.25,3.89,3.89,0,0,0-2.46-.72H111V77.15h2V72.63h1.41l2.47,4.52h2.26Zm-.35-1.84a1.76,1.76,0,0,1-.94.25H113v-3h2.21a1.63,1.63,0,0,1,1,.29,1,1,0,0,1,.4.89v.81a.82.82,0,0,1-.41.77Zm12.25,4.91a3,3,0,0,0,.33-1.45,3.38,3.38,0,0,0-.24-1.34,2.6907,2.6907,0,0,0-.72-1,4.2821,4.2821,0,0,0-1.13-.67,11.46,11.46,0,0,0-1.53-.5c-.27-.06-.55-.14-.83-.22a3.3475,3.3475,0,0,1-.77-.31,2,2,0,0,1-.57-.44.91.91,0,0,1-.22-.63,1.1407,1.1407,0,0,1,.17-.63,1.36,1.36,0,0,1,.45-.41,2.1026,2.1026,0,0,1,.64-.22,4.523,4.523,0,0,1,.74-.07,2.9993,2.9993,0,0,1,.7.1,4.6556,4.6556,0,0,1,.71.26,5.4951,5.4951,0,0,1,.64.33,3.4662,3.4662,0,0,1,.49.36l1.13-1.51a7.28,7.28,0,0,0-1.59-1,5.21,5.21,0,0,0-2.08-.39,6.4188,6.4188,0,0,0-1.56.18,3.8289,3.8289,0,0,0-1.28.56,2.62,2.62,0,0,0-.87,1,3.0006,3.0006,0,0,0-.32,1.42,3.12,3.12,0,0,0,.22,1.24,2.4591,2.4591,0,0,0,.65.91,3.9994,3.9994,0,0,0,1,.67,13.4138,13.4138,0,0,0,1.38.52l.89.24a5.6906,5.6906,0,0,1,.88.31,2.279,2.279,0,0,1,.68.47,1,1,0,0,1,.27.7,1.13,1.13,0,0,1-.2.69,1.5209,1.5209,0,0,1-.5.44,2.58,2.58,0,0,1-.71.24,4.1149,4.1149,0,0,1-.78.07,2.73,2.73,0,0,1-.81-.13,4.0879,4.0879,0,0,1-.81-.34,4.8892,4.8892,0,0,1-.73-.49,2.5685,2.5685,0,0,1-.54-.56l-1.32,1.26a4,4,0,0,0,.81.88,5.08,5.08,0,0,0,1,.64,5.6473,5.6473,0,0,0,1.2.41,6.2668,6.2668,0,0,0,1.29.13,6.693,6.693,0,0,0,1.57-.18,4.07,4.07,0,0,0,1.3-.59,2.89,2.89,0,0,0,1.01-.94Zm4.2,1.66V66h-2V77.15Zm1.74-9.33h3.29v9.32h2v-9.3H143V66h-8.65ZM151.61,66,149,71l-2.59-5h-2.32l3.9,6.74v4.4h2V72.76L154,66ZM23.77,83.2a4.46,4.46,0,0,0-1.39-.71,5.3513,5.3513,0,0,0-1.64-.25h-.27a5.7489,5.7489,0,0,0-1.66.24,4.3811,4.3811,0,0,0-1.4.7,3.59,3.59,0,0,0-1,1.13,3.18,3.18,0,0,0-.37,1.53v4.25a3.35,3.35,0,0,0,.36,1.58,3.25,3.25,0,0,0,.95,1.13,4.1513,4.1513,0,0,0,1.4.68,6.2294,6.2294,0,0,0,1.7.23h.25a6.14,6.14,0,0,0,1.68-.23,4.2113,4.2113,0,0,0,1.39-.69,3.4888,3.4888,0,0,0,1-1.14,3.38,3.38,0,0,0,.35-1.56V85.84a3,3,0,0,0-.37-1.51A3.63,3.63,0,0,0,23.77,83.2Zm-.69,6.89a1.61,1.61,0,0,1-.2.8,1.7507,1.7507,0,0,1-.51.57,2.2392,2.2392,0,0,1-.75.34,3.6521,3.6521,0,0,1-.88.1h-.25a3.7147,3.7147,0,0,1-.9-.1,2.22,2.22,0,0,1-.75-.33,1.7,1.7,0,0,1-.53-.57,1.59,1.59,0,0,1-.19-.81V85.84a1.55,1.55,0,0,1,.19-.78,1.7,1.7,0,0,1,.54-.56,2.2891,2.2891,0,0,1,.76-.34,3.127,3.127,0,0,1,.86-.12h.27a3.1265,3.1265,0,0,1,.86.12,2.55,2.55,0,0,1,.74.36,1.771,1.771,0,0,1,.53.56,1.47,1.47,0,0,1,.21.78Zm4.15,3.45h2V88.73h3.55V87H29.27V84.2h4.22V82.4H27.23Zm10.34-9.33h3.29v9.32h2V84.22h3.33V82.4H37.57ZM50,88.66h3.56V86.94H50V84.21h4.23V82.4H48V93.54h6.6v-1.8H50Zm12.07,3a5.0715,5.0715,0,0,1-1.54.22A2.6994,2.6994,0,0,1,59,91.47a1.54,1.54,0,0,1-.63-1.38V85.86a1.63,1.63,0,0,1,.17-.78,1.59,1.59,0,0,1,.47-.56,2.049,2.049,0,0,1,.71-.35,2.55,2.55,0,0,1,.84-.13,3,3,0,0,1,1.43.32,5.1121,5.1121,0,0,1,1.13.81l1.11-1.37a7.6535,7.6535,0,0,0-.76-.69,3.839,3.839,0,0,0-.79-.49,3.7491,3.7491,0,0,0-.93-.29,7.0052,7.0052,0,0,0-1.19-.09,5.1684,5.1684,0,0,0-1.64.25,4.0011,4.0011,0,0,0-1.34.71,3.35,3.35,0,0,0-1.25,2.66v4.23a3.6,3.6,0,0,0,.33,1.58,3.3094,3.3094,0,0,0,.89,1.13,4.08,4.08,0,0,0,1.35.68,5.9984,5.9984,0,0,0,1.68.23,6.7519,6.7519,0,0,0,2-.27,4.3993,4.3993,0,0,0,1.73-1L63.34,91a3.5806,3.5806,0,0,1-1.27.68Zm10.58-4.44H68.08V82.4h-2V93.54h2V89h4.57v4.5h2V82.4h-2Zm11.74,4.19-4.68-9H77.05V93.54h1.8V84.75l4.53,8.79h2.81V82.4h-1.8ZM96,83.2a4.46,4.46,0,0,0-1.39-.71A5.3023,5.3023,0,0,0,93,82.24h-.3a5.7615,5.7615,0,0,0-1.67.24,4.38,4.38,0,0,0-1.4.7,3.59,3.59,0,0,0-1,1.13,3.1711,3.1711,0,0,0-.36,1.53v4.25a3.34,3.34,0,0,0,.35,1.58,3.25,3.25,0,0,0,1,1.13,4.1513,4.1513,0,0,0,1.4.68,6.2929,6.2929,0,0,0,1.7.23H93a6.14,6.14,0,0,0,1.68-.23A4.21,4.21,0,0,0,96,92.79a3.49,3.49,0,0,0,1-1.14,3.2609,3.2609,0,0,0,.35-1.56V85.84A3.0006,3.0006,0,0,0,97,84.33,3.63,3.63,0,0,0,96,83.2Zm-.69,6.89a1.51,1.51,0,0,1-.2.8,1.75,1.75,0,0,1-.51.57,2.151,2.151,0,0,1-.75.34,3.6021,3.6021,0,0,1-.88.1h-.25a3.8184,3.8184,0,0,1-.9-.1,2.32,2.32,0,0,1-.75-.33,1.8093,1.8093,0,0,1-.53-.57,1.59,1.59,0,0,1-.19-.81V85.84a1.55,1.55,0,0,1,.19-.78,1.8,1.8,0,0,1,.54-.56,2.3905,2.3905,0,0,1,.76-.34A3.15,3.15,0,0,1,92.7,84H93a3.127,3.127,0,0,1,.86.12,2.4313,2.4313,0,0,1,.74.36,1.92,1.92,0,0,1,.54.56,1.56,1.56,0,0,1,.2.78Zm6.19-7.69h-2V93.54h7v-1.8h-5Zm13.77.8a4.3493,4.3493,0,0,0-1.39-.71,5.26,5.26,0,0,0-1.64-.25H112a5.7008,5.7008,0,0,0-1.66.24,4.2809,4.2809,0,0,0-1.4.7,3.5,3.5,0,0,0-1,1.13,3.17,3.17,0,0,0-.36,1.53v4.25a3.4693,3.4693,0,0,0,.35,1.58,3.361,3.361,0,0,0,.95,1.13,4.25,4.25,0,0,0,1.4.68,6.3581,6.3581,0,0,0,1.71.23h.24a6.14,6.14,0,0,0,1.68-.23,4.1209,4.1209,0,0,0,1.39-.69,3.3705,3.3705,0,0,0,1-1.14,3.2609,3.2609,0,0,0,.35-1.56V85.84a3.12,3.12,0,0,0-.36-1.51,3.6593,3.6593,0,0,0-1.03-1.13Zm-.69,6.89a1.6009,1.6009,0,0,1-.19.8,1.7809,1.7809,0,0,1-.52.57,2.19,2.19,0,0,1-.74.34,3.74,3.74,0,0,1-.89.1H112a3.7147,3.7147,0,0,1-.9-.1,2.2808,2.2808,0,0,1-.76-.33,1.67,1.67,0,0,1-.52-.57,1.59,1.59,0,0,1-.2-.81V85.84a1.56,1.56,0,0,1,.2-.78,1.771,1.771,0,0,1,.53-.56,2.3905,2.3905,0,0,1,.76-.34A3.1987,3.1987,0,0,1,112,84h.26a3.0811,3.0811,0,0,1,.86.12,2.61,2.61,0,0,1,.75.36,1.89,1.89,0,0,1,.53.56,1.4594,1.4594,0,0,1,.2.78ZM122.82,89H125v2.41a3.1483,3.1483,0,0,1-1,.39,5.5853,5.5853,0,0,1-1.06.08,3.8183,3.8183,0,0,1-.92-.1,2.12,2.12,0,0,1-.75-.31,1.7507,1.7507,0,0,1-.51-.57,1.67,1.67,0,0,1-.19-.83V85.86a1.5707,1.5707,0,0,1,.2-.79,1.75,1.75,0,0,1,.51-.57,2.2392,2.2392,0,0,1,.75-.34,3.22,3.22,0,0,1,.88-.12,4.06,4.06,0,0,1,1.51.3,5.2021,5.2021,0,0,1,1.36.77l.92-1.48a5.0008,5.0008,0,0,0-1.74-1.06,6.21,6.21,0,0,0-2.05-.33,5.78,5.78,0,0,0-1.68.24,4.4,4.4,0,0,0-1.39.68,3.28,3.28,0,0,0-1.3,2.7v4.23a3.64,3.64,0,0,0,.33,1.61,3.18,3.18,0,0,0,.93,1.12,3.8883,3.8883,0,0,0,1.39.66,6.4807,6.4807,0,0,0,1.74.23,6.7492,6.7492,0,0,0,1.14-.09,4.8556,4.8556,0,0,0,1-.28,9.8472,9.8472,0,0,0,1-.43l1-.56v-5h-4.16Zm10-1.65-2.59-5H127.9l3.9,6.74v4.4h2V89.15l4-6.75h-2.34ZM51.74,66V77.15h2V72.24h.72l3.37,4.91H60.6l-4.54-6L60.28,66H57.62l-3.21,4.25h-.64V66Zm-12,0h-1.8v9l-4.68-9H30.62V77.1h1.79V68.36l4.51,8.77h2.81Zm-4.8.55h1.18l1.54-2.7h-2Z"/></svg>